<svg xmlns="http://www.w3.org/2000/svg" width="20.282" height="20.282" viewBox="0 0 20.282 20.282">
  <path id="linkedin" d="M10.141,0A10.141,10.141,0,1,0,20.282,10.141,10.142,10.142,0,0,0,10.141,0ZM7.194,15.331H4.724V7.9h2.47ZM5.959,6.885H5.943a1.287,1.287,0,1,1,.032-2.568,1.288,1.288,0,1,1-.016,2.568ZM16.1,15.331H13.63V11.356c0-1-.358-1.68-1.251-1.68a1.352,1.352,0,0,0-1.267.9,1.691,1.691,0,0,0-.081.6v4.15H8.561s.032-6.734,0-7.431h2.47V8.952a2.452,2.452,0,0,1,2.226-1.226c1.625,0,2.843,1.062,2.843,3.344Zm0,0" transform="translate(0 0)" fill="#fff"/>
</svg>
