<svg xmlns="http://www.w3.org/2000/svg" width="11.279" height="11.279" viewBox="0 0 11.279 11.279">
  <path id="linkedin" d="M5.64,0a5.64,5.64,0,1,0,5.64,5.64A5.64,5.64,0,0,0,5.64,0ZM4,8.526H2.627V4.393H4Zm-.687-4.7H3.305A.716.716,0,1,1,3.323,2.4a.716.716,0,1,1-.009,1.428Zm5.639,4.7H7.58V6.315c0-.556-.2-.934-.7-.934a.752.752,0,0,0-.7.5.941.941,0,0,0-.045.335V8.526H4.761s.018-3.745,0-4.132H6.134v.585A1.364,1.364,0,0,1,7.372,4.3c.9,0,1.581.591,1.581,1.86Zm0,0" transform="translate(0 0)" fill="#a9a9a9"/>
</svg>
