<svg xmlns="http://www.w3.org/2000/svg" width="21" height="20.998" viewBox="0 0 21 20.998">
  <path id="Icon" d="M1364.249,4925.43a.724.724,0,0,0-.375.1l-19.5,11.25a.7.7,0,0,0-.375.691.688.688,0,0,0,.469.645l4.629,1.9,12.527-10.839-10.125,12.41v4.091a.73.73,0,0,0,.135.427.739.739,0,0,0,.358.276.652.652,0,0,0,.258.045.693.693,0,0,0,.574-.269l2.835-3.457,5.309,2.168a.784.784,0,0,0,.281.058.717.717,0,0,0,.363-.092.742.742,0,0,0,.375-.528l3-18a.746.746,0,0,0-.739-.877Z" transform="translate(-1343.998 -4925.43)" fill="#1d64e0"/>
</svg>
