<svg id="Group_926" data-name="Group 926" xmlns="http://www.w3.org/2000/svg" width="55.399" height="54.809" viewBox="0 0 55.399 54.809">
  <path id="Path_2820" data-name="Path 2820" d="M278.967,3806.752a5.222,5.222,0,1,0,5.221,5.221A5.227,5.227,0,0,0,278.967,3806.752Zm0,12.155a6.933,6.933,0,1,1,6.933-6.934A6.942,6.942,0,0,1,278.967,3818.907Z" transform="translate(-265.572 -3781.943)" fill="#fff"/>
  <path id="Path_2821" data-name="Path 2821" d="M36.952,4342.543a.954.954,0,0,1-.123-.008.857.857,0,0,1-.725-.969l1.338-9.3a8.093,8.093,0,0,1,5.968-6.606l2.122-.551a.856.856,0,1,1,.43,1.657l-2.122.551a6.381,6.381,0,0,0-4.7,5.2l-1.337,9.3A.856.856,0,0,1,36.952,4342.543Z" transform="translate(-36.095 -4287.735)" fill="#fff"/>
  <path id="Path_2822" data-name="Path 2822" d="M641.937,4342.543a.856.856,0,0,1-.841-.705l-1.672-9.3,0-.02a6.381,6.381,0,0,0-4.705-5.2l-2.122-.551a.856.856,0,1,1,.43-1.657l2.122.551a8.091,8.091,0,0,1,5.965,6.586l1.67,9.295a.856.856,0,0,1-.691.994A.9.9,0,0,1,641.937,4342.543Z" transform="translate(-615.633 -4287.735)" fill="#fff"/>
  <path id="Path_2823" data-name="Path 2823" d="M492.669,4393.207a.856.856,0,0,1-.856-.856v-1.783a.856.856,0,1,1,1.712,0v1.783A.856.856,0,0,1,492.669,4393.207Z" transform="translate(-479.331 -4350.601)" fill="#fff"/>
  <path id="Path_2824" data-name="Path 2824" d="M492.669,4567.43a.856.856,0,0,1-.856-.856v-9.423a.856.856,0,1,1,1.712,0v9.423A.856.856,0,0,1,492.669,4567.43Z" transform="translate(-479.331 -4512.622)" fill="#fff"/>
  <path id="Path_2825" data-name="Path 2825" d="M257.13,3011.837c-.7,0-1.4-.029-2.087-.086a.856.856,0,0,1,.141-1.706c.643.054,1.3.08,1.947.08a23.346,23.346,0,1,0-23.262-25.364.856.856,0,1,1-1.706-.146,25.06,25.06,0,1,1,24.967,27.222Z" transform="translate(-226.79 -2961.719)" fill="#fff"/>
  <path id="Path_2826" data-name="Path 2826" d="M1113.461,3011.816a.855.855,0,0,1-.856-.856v-48.385a.856.856,0,0,1,1.712,0v48.385A.855.855,0,0,1,1113.461,3011.816Z" transform="translate(-1083.121 -2961.719)" fill="#fff"/>
  <path id="Path_2827" data-name="Path 2827" d="M871.458,3846.727H839.769a.856.856,0,1,1,0-1.712h31.689a.856.856,0,1,1,0,1.712Z" transform="translate(-816.925 -3820.823)" fill="#fff"/>
  <path id="Path_2828" data-name="Path 2828" d="M1009.7,4191.7c-.986,0-1.986-.03-2.973-.088a.856.856,0,0,1,.1-1.709c.953.057,1.919.085,2.871.085a46.373,46.373,0,0,0,21.575-5.14.855.855,0,1,1,.872,1.472,36,36,0,0,1-6.242,2.705A50.9,50.9,0,0,1,1009.7,4191.7Z" transform="translate(-979.362 -4151.228)" fill="#fff"/>
  <path id="Path_2829" data-name="Path 2829" d="M353.841,3311.641a.855.855,0,0,1-.435-.119,47.842,47.842,0,0,0-43.15,0,.856.856,0,0,1-.872-1.474,36.149,36.149,0,0,1,6.242-2.7,50.411,50.411,0,0,1,32.411,0,36.157,36.157,0,0,1,6.242,2.7.856.856,0,0,1-.437,1.593Z" transform="translate(-301.491 -3295.276)" fill="#fff"/>
  <path id="Path_2830" data-name="Path 2830" d="M1510.489,3100.752a.855.855,0,0,1-.7-1.344,40.618,40.618,0,0,0,0-42.222.856.856,0,0,1,1.4-.978,33.15,33.15,0,0,1,3.128,6.139,42.626,42.626,0,0,1,0,31.9,33.18,33.18,0,0,1-3.128,6.139A.856.856,0,0,1,1510.489,3100.752Z" transform="translate(-1469.275 -3053.263)" fill="#fff"/>
  <path id="Path_2831" data-name="Path 2831" d="M503.063,3074.836a.876.876,0,0,1-.091,0,.856.856,0,0,1-.762-.941,40.558,40.558,0,0,1,5.993-17.682.856.856,0,0,1,1.4.978,39.609,39.609,0,0,0-5.7,16.883A.856.856,0,0,1,503.063,3074.836Z" transform="translate(-489.44 -3053.264)" fill="#fff"/>
</svg>
