<svg id="Group_924" data-name="Group 924" xmlns="http://www.w3.org/2000/svg" width="70.146" height="62.033" viewBox="0 0 70.146 62.033">
  <path id="Path_2770" data-name="Path 2770" d="M7163.795,859.821a5.848,5.848,0,1,0,5.848,5.848A5.855,5.855,0,0,0,7163.795,859.821Zm0,13.845a8,8,0,1,1,8-8A8.007,8.007,0,0,1,7163.795,873.666Z" transform="translate(-7128.705 -832.675)" fill="#fff"/>
  <path id="Path_2771" data-name="Path 2771" d="M6942.843,1370.338a1.087,1.087,0,0,1-.155-.011,1.075,1.075,0,0,1-.911-1.217l1.524-10.6a9.321,9.321,0,0,1,6.872-7.607l2.417-.628a1.075,1.075,0,1,1,.54,2.08l-2.417.628a7.168,7.168,0,0,0-5.285,5.844l-1.523,10.587A1.074,1.074,0,0,1,6942.843,1370.338Z" transform="translate(-6922.035 -1308.305)" fill="#fff"/>
  <path id="Path_2772" data-name="Path 2772" d="M7493.763,1370.339a1.075,1.075,0,0,1-1.057-.885l-1.9-10.6c0-.008,0-.017,0-.025a7.169,7.169,0,0,0-5.285-5.844l-2.418-.628a1.075,1.075,0,1,1,.541-2.08l2.417.628a9.316,9.316,0,0,1,6.867,7.583l1.9,10.587a1.073,1.073,0,0,1-.867,1.248A1.094,1.094,0,0,1,7493.763,1370.339Z" transform="translate(-7443.968 -1308.305)" fill="#fff"/>
  <path id="Path_2773" data-name="Path 2773" d="M7356.247,1454.127a1.075,1.075,0,0,1-1.075-1.075v-1.106a1.075,1.075,0,1,1,2.149,0v1.106A1.075,1.075,0,0,1,7356.247,1454.127Z" transform="translate(-7321.223 -1405.475)" fill="#fff"/>
  <path id="Path_2774" data-name="Path 2774" d="M7356.247,1622.282a1.075,1.075,0,0,1-1.075-1.075v-8.973a1.075,1.075,0,0,1,2.149,0v8.973A1.075,1.075,0,0,1,7356.247,1622.282Z" transform="translate(-7321.223 -1560.249)" fill="#fff"/>
  <path id="Path_2775" data-name="Path 2775" d="M7368.914,150.237a1.075,1.075,0,0,1-1.075-1.075V131.95a1.075,1.075,0,1,1,2.149,0v17.212A1.075,1.075,0,0,1,7368.914,150.237Z" transform="translate(-7333.454 -130.875)" fill="#fff"/>
  <path id="Path_2776" data-name="Path 2776" d="M6381.161,1425.28h-12.04a1.075,1.075,0,0,1,0-2.15h12.04a1.075,1.075,0,1,1,0,2.15Z" transform="translate(-6368.047 -1378.686)" fill="#fff"/>
  <path id="Path_2777" data-name="Path 2777" d="M7965.877,1425.28h-13.546a1.075,1.075,0,0,1,0-2.15h13.546a1.075,1.075,0,0,1,0,2.15Z" transform="translate(-7896.807 -1378.686)" fill="#fff"/>
  <path id="Path_2778" data-name="Path 2778" d="M6513.13,569.51a1.069,1.069,0,0,1-.76-.315l-10.54-10.539a1.075,1.075,0,0,1,1.521-1.52l10.539,10.539a1.075,1.075,0,0,1-.759,1.835Z" transform="translate(-6496.925 -542.173)" fill="#fff"/>
  <path id="Path_2779" data-name="Path 2779" d="M7928.8,531.754a1.075,1.075,0,0,1-.76-1.835l11.883-11.883a1.075,1.075,0,0,1,1.521,1.52l-11.883,11.883A1.073,1.073,0,0,1,7928.8,531.754Z" transform="translate(-7874.083 -504.417)" fill="#fff"/>
  <path id="Path_2780" data-name="Path 2780" d="M6950.418,526.208a1.075,1.075,0,0,1-.974-.621l-2.959-6.346a1.075,1.075,0,1,1,1.948-.909l2.959,6.346a1.074,1.074,0,0,1-.973,1.529Z" transform="translate(-6926.493 -504.408)" fill="#fff"/>
  <path id="Path_2781" data-name="Path 2781" d="M6474.81,1691.812a1.075,1.075,0,0,1-.456-2.049l9.525-4.442a1.075,1.075,0,1,1,.909,1.948l-9.525,4.442A1.065,1.065,0,0,1,6474.81,1691.812Z" transform="translate(-6470.1 -1631.763)" fill="#fff"/>
  <path id="Path_2782" data-name="Path 2782" d="M7952.312,1108.38a1.075,1.075,0,0,1-.454-2.049l3.144-1.466a1.075,1.075,0,0,1,.909,1.948l-3.144,1.466A1.078,1.078,0,0,1,7952.312,1108.38Z" transform="translate(-7896.787 -1071.27)" fill="#fff"/>
  <path id="Path_2783" data-name="Path 2783" d="M6506.616,1108.429a1.067,1.067,0,0,1-.367-.065l-4.186-1.523a1.075,1.075,0,0,1,.735-2.02l4.186,1.523a1.075,1.075,0,0,1-.368,2.085Z" transform="translate(-6496.771 -1071.262)" fill="#fff"/>
  <path id="Path_2784" data-name="Path 2784" d="M8007.688,1654.693a1.084,1.084,0,0,1-.368-.065l-9.673-3.52a1.075,1.075,0,0,1,.735-2.02l9.673,3.52a1.075,1.075,0,0,1-.367,2.085Z" transform="translate(-7940.919 -1596.811)" fill="#fff"/>
  <path id="Path_2785" data-name="Path 2785" d="M7702.838,504.4a1.076,1.076,0,0,1-.983-1.509l2.726-6.18a1.075,1.075,0,0,1,1.968.867l-2.726,6.18A1.076,1.076,0,0,1,7702.838,504.4Z" transform="translate(-7655.894 -483.512)" fill="#fff"/>
</svg>
