<svg xmlns="http://www.w3.org/2000/svg" width="55.341" height="57.019" viewBox="0 0 55.341 57.019">
  <g id="Group_925" data-name="Group 925" transform="translate(0)">
    <path id="Path_2786" data-name="Path 2786" d="M9986.018,781.923a13.236,13.236,0,1,0,13.236,13.236A13.251,13.251,0,0,0,9986.018,781.923Zm0,28.2a14.966,14.966,0,1,1,14.965-14.966A14.984,14.984,0,0,1,9986.018,810.125Z" transform="translate(-9959.714 -758.675)" fill="#fff"/>
    <path id="Path_2787" data-name="Path 2787" d="M10861.414,1671.392a.865.865,0,0,1-.612-.253l-9.4-9.4a.865.865,0,1,1,1.223-1.223l9.4,9.4a.865.865,0,0,1-.611,1.477Z" transform="translate(-10815.442 -1614.373)" fill="#fff"/>
    <path id="Path_2788" data-name="Path 2788" d="M10344.771,995.452a2.991,2.991,0,1,0,2.992,2.991A2.994,2.994,0,0,0,10344.771,995.452Zm0,7.713a4.722,4.722,0,1,1,4.723-4.722A4.726,4.726,0,0,1,10344.771,1003.165Z" transform="translate(-10318.499 -966.292)" fill="#fff"/>
    <path id="Path_2789" data-name="Path 2789" d="M10192.8,1346.324a.867.867,0,0,1-.858-.988l.85-5.9a5.46,5.46,0,0,1,4.024-4.458l1.348-.35a.865.865,0,1,1,.435,1.675l-1.348.35a3.728,3.728,0,0,0-2.747,3.039l-.849,5.9A.865.865,0,0,1,10192.8,1346.324Z" transform="translate(-10174.483 -1297.728)" fill="#fff"/>
    <path id="Path_2790" data-name="Path 2790" d="M10572.659,1346.324a.867.867,0,0,1-.851-.712l-1.061-5.9c0-.007,0-.014,0-.021a3.724,3.724,0,0,0-2.747-3.039l-1.347-.35a.865.865,0,1,1,.434-1.675l1.348.35a5.456,5.456,0,0,1,4.021,4.438l1.06,5.895a.864.864,0,0,1-.7,1A.876.876,0,0,1,10572.659,1346.324Z" transform="translate(-10538.192 -1297.728)" fill="#fff"/>
    <path id="Path_2791" data-name="Path 2791" d="M10478.915,1406.343a.865.865,0,0,1-.864-.865v-.378a.865.865,0,1,1,1.73,0v.378A.866.866,0,0,1,10478.915,1406.343Z" transform="translate(-10452.678 -1365.439)" fill="#fff"/>
    <path id="Path_2792" data-name="Path 2792" d="M10478.915,1520.907a.865.865,0,0,1-.864-.865v-4.017a.865.865,0,0,1,1.73,0v4.017A.866.866,0,0,1,10478.915,1520.907Z" transform="translate(-10452.678 -1473.293)" fill="#fff"/>
    <path id="Path_2793" data-name="Path 2793" d="M9687.2,516.952a2.3,2.3,0,1,0,2.3,2.3A2.3,2.3,0,0,0,9687.2,516.952Zm0,6.329a4.03,4.03,0,1,1,4.029-4.03A4.034,4.034,0,0,1,9687.2,523.281Z" transform="translate(-9679.809 -501.04)" fill="#fff"/>
    <path id="Path_2794" data-name="Path 2794" d="M9562.47,830.719a.855.855,0,0,1-.124-.009.865.865,0,0,1-.734-.98l.7-4.846a4.636,4.636,0,0,1,3.418-3.786l1.105-.287a.865.865,0,0,1,.435,1.675l-1.105.287a2.905,2.905,0,0,0-2.142,2.367l-.694,4.836A.865.865,0,0,1,9562.47,830.719Z" transform="translate(-9561.603 -798.142)" fill="#fff"/>
    <path id="Path_2795" data-name="Path 2795" d="M9872.283,823.8a.863.863,0,0,1-.615-.257,2.9,2.9,0,0,0-1.335-.768l-1.105-.287a.865.865,0,0,1,.435-1.675l1.105.287a4.641,4.641,0,0,1,2.131,1.226.865.865,0,0,1-.615,1.474Z" transform="translate(-9860.081 -798.142)" fill="#fff"/>
    <path id="Path_2796" data-name="Path 2796" d="M10966.247,516.952a2.3,2.3,0,1,0,2.3,2.3A2.3,2.3,0,0,0,10966.247,516.952Zm0,6.329a4.03,4.03,0,1,1,4.03-4.03A4.034,4.034,0,0,1,10966.247,523.281Z" transform="translate(-10923.438 -501.04)" fill="#fff"/>
    <path id="Path_2797" data-name="Path 2797" d="M10939.047,823.088a.865.865,0,0,1-.4-1.635,4.621,4.621,0,0,1,.953-.363l1.1-.287a.865.865,0,0,1,.435,1.675l-1.1.287a2.889,2.889,0,0,0-.6.227A.86.86,0,0,1,10939.047,823.088Z" transform="translate(-10900.068 -798.134)" fill="#fff"/>
    <path id="Path_2798" data-name="Path 2798" d="M11153.241,830.719a.865.865,0,0,1-.851-.712l-.871-4.846a.151.151,0,0,0,0-.02,2.9,2.9,0,0,0-2.141-2.367l-1.105-.287a.865.865,0,0,1,.436-1.675l1.105.287a4.634,4.634,0,0,1,3.414,3.766l.869,4.836a.865.865,0,0,1-.7,1A.89.89,0,0,1,11153.241,830.719Z" transform="translate(-11103.711 -798.142)" fill="#fff"/>
    <path id="Path_2799" data-name="Path 2799" d="M10226.289,157.514a2.3,2.3,0,1,0,2.3,2.3A2.3,2.3,0,0,0,10226.289,157.514Zm0,6.33a4.03,4.03,0,1,1,4.029-4.03A4.035,4.035,0,0,1,10226.289,163.843Z" transform="translate(-10203.967 -151.554)" fill="#fff"/>
    <path id="Path_2800" data-name="Path 2800" d="M10106.679,470.295a.866.866,0,0,1-.858-.988l.556-3.863a4.636,4.636,0,0,1,3.417-3.787l1.105-.287a.865.865,0,1,1,.435,1.675l-1.1.287a2.907,2.907,0,0,0-2.143,2.367l-.553,3.853A.865.865,0,0,1,10106.679,470.295Z" transform="translate(-10090.744 -448.653)" fill="#fff"/>
    <path id="Path_2801" data-name="Path 2801" d="M10412.617,467.552a.865.865,0,0,1-.852-.712l-.2-1.114a.077.077,0,0,0,0-.021,2.9,2.9,0,0,0-2.141-2.367l-1.105-.287a.865.865,0,1,1,.436-1.675l1.105.287a4.634,4.634,0,0,1,3.414,3.766l.2,1.1a.866.866,0,0,1-.7,1A.84.84,0,0,1,10412.617,467.552Z" transform="translate(-10384.243 -448.658)" fill="#fff"/>
    <path id="Path_2802" data-name="Path 2802" d="M11144.788,157.514a2.3,2.3,0,1,0,2.3,2.3A2.3,2.3,0,0,0,11144.788,157.514Zm0,6.33a4.03,4.03,0,1,1,4.03-4.03A4.036,4.036,0,0,1,11144.788,163.843Z" transform="translate(-11097.037 -151.554)" fill="#fff"/>
    <path id="Path_2803" data-name="Path 2803" d="M11331.813,471.284a.865.865,0,0,1-.852-.712l-.871-4.846a.077.077,0,0,0,0-.021,2.9,2.9,0,0,0-2.141-2.367l-1.105-.287a.865.865,0,0,1,.436-1.675l1.105.287a4.634,4.634,0,0,1,3.414,3.766l.869,4.836a.867.867,0,0,1-.852,1.018Z" transform="translate(-11277.338 -448.658)" fill="#fff"/>
    <path id="Path_2804" data-name="Path 2804" d="M9700.289,4.73a2.3,2.3,0,1,0,2.3,2.3A2.3,2.3,0,0,0,9700.289,4.73Zm0,6.33a4.03,4.03,0,1,1,4.029-4.03A4.036,4.036,0,0,1,9700.289,11.06Z" transform="translate(-9692.529 -3)" fill="#fff"/>
    <path id="Path_2805" data-name="Path 2805" d="M9575.593,318.5a.847.847,0,0,1-.123-.009.865.865,0,0,1-.734-.98l.7-4.846a4.636,4.636,0,0,1,3.418-3.786l1.105-.287a.865.865,0,0,1,.435,1.675l-1.105.287a2.9,2.9,0,0,0-2.141,2.367l-.7,4.836A.866.866,0,0,1,9575.593,318.5Z" transform="translate(-9574.363 -300.101)" fill="#fff"/>
    <path id="Path_2806" data-name="Path 2806" d="M9886.864,316.016a.863.863,0,0,1-.85-.712l-.426-2.362,0-.021a2.9,2.9,0,0,0-2.142-2.367l-1.1-.287a.865.865,0,0,1,.435-1.675l1.1.287a4.633,4.633,0,0,1,3.416,3.766l.422,2.353a.865.865,0,0,1-.7,1A.878.878,0,0,1,9886.864,316.016Z" transform="translate(-9872.83 -300.104)" fill="#fff"/>
    <path id="Path_2807" data-name="Path 2807" d="M10744.205,4.73a2.3,2.3,0,1,0,2.3,2.3A2.3,2.3,0,0,0,10744.205,4.73Zm0,6.33a4.03,4.03,0,1,1,4.029-4.03A4.035,4.035,0,0,1,10744.205,11.06Z" transform="translate(-10707.543 -3)" fill="#fff"/>
    <path id="Path_2808" data-name="Path 2808" d="M10632.426,316.013a.851.851,0,0,1-.124-.009.865.865,0,0,1-.733-.979l.339-2.362a4.636,4.636,0,0,1,3.419-3.786l1.1-.287a.865.865,0,0,1,.435,1.675l-1.105.287a2.9,2.9,0,0,0-2.14,2.367l-.34,2.353A.864.864,0,0,1,10632.426,316.013Z" transform="translate(-10601.936 -300.101)" fill="#fff"/>
    <path id="Path_2809" data-name="Path 2809" d="M10930.356,313.653a.865.865,0,0,1-.854-.733,2.907,2.907,0,0,0-2.142-2.367l-1.1-.287a.865.865,0,0,1,.435-1.675l1.1.287a4.632,4.632,0,0,1,3.416,3.777.864.864,0,0,1-.722.987A.88.88,0,0,1,10930.356,313.653Z" transform="translate(-10887.844 -300.104)" fill="#fff"/>
  </g>
</svg>
