<svg id="Group_920" data-name="Group 920" xmlns="http://www.w3.org/2000/svg" width="72.577" height="60.051" viewBox="0 0 72.577 60.051">
  <path id="Path_3048" data-name="Path 3048" d="M13558.26,9289.573a2.683,2.683,0,1,0,2.682,2.683A2.687,2.687,0,0,0,13558.26,9289.573Zm0,7.515a4.832,4.832,0,1,1,4.832-4.832A4.837,4.837,0,0,1,13558.26,9297.088Z" transform="translate(-13522.94 -9277.004)" fill="#fff"/>
  <path id="Path_3049" data-name="Path 3049" d="M13236.473,9575.49c-.031,0-.061,0-.092,0l-14.123-1.2a1.075,1.075,0,0,1,.182-2.142l14.123,1.2a1.075,1.075,0,0,1-.09,2.146Zm-33.422.751a1.076,1.076,0,0,1-.161-2.139l12.728-1.95a1.075,1.075,0,0,1,.326,2.125l-12.729,1.951A1.171,1.171,0,0,1,13203.051,9576.241Zm12.729,35.673a1.076,1.076,0,0,1-1.07-.982l-1.955-22.846a1.132,1.132,0,0,1,0-.2l.938-9.314-6.543.633a1.075,1.075,0,0,1-.205-2.141l7.846-.759a1.077,1.077,0,0,1,1.172,1.178l-1.058,10.52,1.946,22.745a1.079,1.079,0,0,1-.98,1.164C13215.841,9611.914,13215.81,9611.914,13215.779,9611.914Zm6.572.006-.081,0a1.076,1.076,0,0,1-.993-1.15l1.666-22.821-.68-10.508a1.074,1.074,0,0,1,1.135-1.144l9.006.529a1.075,1.075,0,1,1-.127,2.146l-7.791-.458.605,9.37a.942.942,0,0,1,0,.148l-1.67,22.895A1.076,1.076,0,0,1,13222.352,9611.92Z" transform="translate(-13183.577 -9551.928)" fill="#fff"/>
  <path id="Path_3050" data-name="Path 3050" d="M13670.459,10173.03a1.074,1.074,0,0,1-1.074-1.074v-17.706a1.074,1.074,0,1,1,2.148,0v17.706A1.074,1.074,0,0,1,13670.459,10173.03Z" transform="translate(-13634.909 -10112.979)" fill="#fff"/>
  <path id="Path_3051" data-name="Path 3051" d="M13666.627,9627.336a1.075,1.075,0,0,1-1.075-1.075V9626a1.075,1.075,0,0,1,2.149,0v.263A1.075,1.075,0,0,1,13666.627,9627.336Z" transform="translate(-13631.208 -9602.896)" fill="#fff"/>
  <path id="Path_3052" data-name="Path 3052" d="M13666.627,9717.406a1.075,1.075,0,0,1-1.075-1.075v-7a1.075,1.075,0,0,1,2.149,0v7A1.074,1.074,0,0,1,13666.627,9717.406Z" transform="translate(-13631.208 -9683.364)" fill="#fff"/>
  <path id="Path_3053" data-name="Path 3053" d="M14174.764,9555.286a1.075,1.075,0,0,1-.172-2.137l11.773-1.919a1.076,1.076,0,0,1,.346,2.123l-11.773,1.918A.957.957,0,0,1,14174.764,9555.286Z" transform="translate(-14121.87 -9531.723)" fill="#fff"/>
  <path id="Path_3054" data-name="Path 3054" d="M14175.934,9646.312h-.057l-11.248-.586a2.526,2.526,0,0,1-2.381-3.22,2.541,2.541,0,0,1,2.415-1.831h.028l10.963.225a1.075,1.075,0,0,1-.044,2.15l-10.944-.226a.379.379,0,0,0-.35.272.376.376,0,0,0,.357.479l.047,0,11.27.587a1.075,1.075,0,0,1-.057,2.148Z" transform="translate(-14110.728 -9618.104)" fill="#fff"/>
  <path id="Path_3055" data-name="Path 3055" d="M14152.646,9611.681a2.924,2.924,0,0,1-.92-.147,2.966,2.966,0,0,1-1.906-3.668c.006-.016.012-.033.017-.049l4.521-12.6a1.117,1.117,0,0,1,.24-.384l7.1-7.343.963-5.917a1.075,1.075,0,1,1,2.122.346l-1.017,6.248a1.09,1.09,0,0,1-.289.574l-7.172,7.42-4.432,12.349a.807.807,0,0,0,.522.978.8.8,0,0,0,1.013-.518.486.486,0,0,1,.02-.053l4.229-11.138a1.065,1.065,0,0,1,.328-.454l8.891-7.187a1.444,1.444,0,0,0,.5-.91l1.328-11.887a6.57,6.57,0,0,0-.154-2.326l-.391-1.565a1.076,1.076,0,0,1,2.088-.52l.389,1.565a8.723,8.723,0,0,1,.2,3.084l-1.329,11.9c0,.009,0,.018,0,.026a3.6,3.6,0,0,1-1.277,2.3l-8.672,7.011-4.117,10.842a2.957,2.957,0,0,1-2.8,2.021Z" transform="translate(-14098.698 -9551.906)" fill="#fff"/>
  <path id="Path_3056" data-name="Path 3056" d="M14464.765,9349.115a2.438,2.438,0,1,0,2.438,2.438A2.44,2.44,0,0,0,14464.765,9349.115Zm0,7.025a4.587,4.587,0,1,1,4.589-4.588A4.593,4.593,0,0,1,14464.765,9356.141Z" transform="translate(-14398.506 -9334.498)" fill="#fff"/>
  <path id="Path_3057" data-name="Path 3057" d="M14492.64,10142.66a2.81,2.81,0,0,1-.868-.137,2.845,2.845,0,0,1-1.727-1.546l-3.717-8.312a1.028,1.028,0,0,1-.081-.269l-.78-4.854a1.074,1.074,0,1,1,2.121-.341l.759,4.716,3.659,8.184a.7.7,0,0,0,.984.317.693.693,0,0,0,.3-.844l-3.516-8.1a1.033,1.033,0,0,1-.088-.385l-.277-6.735a1.074,1.074,0,1,1,2.146-.087l.27,6.535,3.445,7.938.015.032a2.844,2.844,0,0,1-2.648,3.887Z" transform="translate(-14422.911 -10084.07)" fill="#fff"/>
  <path id="Path_3058" data-name="Path 3058" d="M12878.57,9555.3a1.074,1.074,0,0,1-.175-.015l-11.773-1.919a1.075,1.075,0,0,1,.347-2.122l11.773,1.919a1.076,1.076,0,0,1-.172,2.137Z" transform="translate(-12858.885 -9531.734)" fill="#fff"/>
  <path id="Path_3059" data-name="Path 3059" d="M12851.167,9646.312a1.075,1.075,0,0,1-.055-2.148l11.269-.587.047,0a.371.371,0,0,0,.3-.15.366.366,0,0,0,.06-.328.378.378,0,0,0-.35-.272l-10.943.226h-.023a1.075,1.075,0,0,1-.021-2.15l10.963-.225h.027a2.538,2.538,0,0,1,2.414,1.831,2.524,2.524,0,0,1-2.379,3.22l-11.248.586Z" transform="translate(-12843.796 -9618.104)" fill="#fff"/>
  <path id="Path_3060" data-name="Path 3060" d="M12696.3,9611.681a2.959,2.959,0,0,1-2.8-2.021l-4.117-10.842-8.663-7a3.609,3.609,0,0,1-1.285-2.3.239.239,0,0,1,0-.026l-1.33-11.9a8.7,8.7,0,0,1,.205-3.084l.39-1.565a1.074,1.074,0,1,1,2.085.52l-.389,1.565a6.547,6.547,0,0,0-.154,2.326l1.326,11.887a1.458,1.458,0,0,0,.516.919l8.879,7.178a1.069,1.069,0,0,1,.33.454l4.229,11.138a.486.486,0,0,1,.02.053.8.8,0,0,0,1.012.518.807.807,0,0,0,.523-.978l-4.434-12.349-7.17-7.42a1.09,1.09,0,0,1-.289-.574l-1.017-6.248a1.074,1.074,0,1,1,2.12-.346l.965,5.917,7.1,7.343a1.1,1.1,0,0,1,.238.384l4.522,12.6c0,.016.012.033.016.049a2.965,2.965,0,0,1-1.906,3.668A2.931,2.931,0,0,1,12696.3,9611.681Z" transform="translate(-12677.672 -9551.906)" fill="#fff"/>
  <path id="Path_3061" data-name="Path 3061" d="M12721.889,9349.115a2.438,2.438,0,1,0,2.438,2.438A2.441,2.441,0,0,0,12721.889,9349.115Zm0,7.025a4.587,4.587,0,1,1,4.586-4.588A4.594,4.594,0,0,1,12721.889,9356.141Z" transform="translate(-12715.57 -9334.498)" fill="#fff"/>
  <path id="Path_3062" data-name="Path 3062" d="M12669.83,10142.66a2.842,2.842,0,0,1-2.646-3.887.16.16,0,0,1,.014-.032l3.445-7.938.268-6.535a1.075,1.075,0,0,1,2.148.087l-.277,6.735a1.092,1.092,0,0,1-.087.385l-3.517,8.1a.693.693,0,0,0,.864.9.674.674,0,0,0,.421-.377l3.66-8.184.758-4.716a1.075,1.075,0,0,1,2.123.341l-.779,4.854a1.067,1.067,0,0,1-.081.269l-3.718,8.313a2.847,2.847,0,0,1-2.6,1.683Z" transform="translate(-12666.981 -10084.07)" fill="#fff"/>
  <path id="Path_3063" data-name="Path 3063" d="M13670.252,8990.7a1.074,1.074,0,0,1-1.074-1.074V8985.5a1.075,1.075,0,0,1,2.149,0v4.127A1.073,1.073,0,0,1,13670.252,8990.7Z" transform="translate(-13634.71 -8984.424)" fill="#fff"/>
  <path id="Path_3064" data-name="Path 3064" d="M13846.062,9084.482a1.074,1.074,0,0,1-.871-1.7l2.414-3.347a1.075,1.075,0,1,1,1.743,1.257l-2.415,3.348A1.073,1.073,0,0,1,13846.062,9084.482Z" transform="translate(-13804.473 -9075.734)" fill="#fff"/>
  <path id="Path_3065" data-name="Path 3065" d="M13426.7,9084.482a1.075,1.075,0,0,1-.873-.445l-2.413-3.348a1.074,1.074,0,1,1,1.742-1.257l2.415,3.347a1.075,1.075,0,0,1-.871,1.7Z" transform="translate(-13397.198 -9075.734)" fill="#fff"/>
</svg>
