<svg xmlns="http://www.w3.org/2000/svg" width="71.858" height="57.327" viewBox="0 0 71.858 57.327">
  <g id="Group_921" data-name="Group 921" transform="translate(0)">
    <path id="Path_2752" data-name="Path 2752" d="M4017.974,998.85a6.658,6.658,0,1,1,2.591-12.792,1.075,1.075,0,1,1-.837,1.98,4.505,4.505,0,1,0,2.267,2.113,1.074,1.074,0,1,1,1.915-.975,6.658,6.658,0,0,1-5.936,9.674Z" transform="translate(-3982.429 -958.494)" fill="#fff"/>
    <path id="Path_2753" data-name="Path 2753" d="M3839.778,1399.418a1.076,1.076,0,0,1-1.065-1.228l1.229-8.548a7.725,7.725,0,0,1,5.7-6.307l1.95-.506a1.075,1.075,0,0,1,.54,2.081l-1.95.506a5.573,5.573,0,0,0-4.11,4.544l-1.228,8.537A1.075,1.075,0,0,1,3839.778,1399.418Z" transform="translate(-3815.752 -1342.091)" fill="#fff"/>
    <path id="Path_2754" data-name="Path 2754" d="M4284.082,1399.419a1.075,1.075,0,0,1-1.056-.885l-1.536-8.548,0-.026a5.571,5.571,0,0,0-4.11-4.544l-1.949-.506a1.075,1.075,0,1,1,.541-2.08l1.949.506a7.722,7.722,0,0,1,5.692,6.282l1.533,8.536a1.076,1.076,0,0,1-1.059,1.265Z" transform="translate(-4236.678 -1342.092)" fill="#fff"/>
    <path id="Path_2755" data-name="Path 2755" d="M4173.2,1466.992a1.074,1.074,0,0,1-1.075-1.075v-.892a1.075,1.075,0,1,1,2.149,0v.892A1.075,1.075,0,0,1,4173.2,1466.992Z" transform="translate(-4137.71 -1420.457)" fill="#fff"/>
    <path id="Path_2756" data-name="Path 2756" d="M4173.2,1602.613a1.074,1.074,0,0,1-1.075-1.075V1594.3a1.075,1.075,0,1,1,2.149,0v7.237A1.075,1.075,0,0,1,4173.2,1602.613Z" transform="translate(-4137.71 -1545.286)" fill="#fff"/>
    <path id="Path_2757" data-name="Path 2757" d="M4697.786,987.684a4.508,4.508,0,1,0,4.508,4.508A4.513,4.513,0,0,0,4697.786,987.684Zm0,11.166a6.658,6.658,0,1,1,6.658-6.658A6.665,6.665,0,0,1,4697.786,998.85Z" transform="translate(-4638.862 -958.494)" fill="#fff"/>
    <path id="Path_2758" data-name="Path 2758" d="M4585.925,1388.179a1.075,1.075,0,0,1-.892-1.675,7.723,7.723,0,0,1,4.471-3.169l1.95-.506a1.075,1.075,0,0,1,.541,2.081l-1.95.506a5.575,5.575,0,0,0-3.228,2.288A1.075,1.075,0,0,1,4585.925,1388.179Z" transform="translate(-4536.239 -1342.091)" fill="#fff"/>
    <path id="Path_2759" data-name="Path 2759" d="M4963.9,1399.419a1.076,1.076,0,0,1-1.057-.885l-1.536-8.548,0-.026a5.572,5.572,0,0,0-4.108-4.544l-1.95-.506a1.075,1.075,0,0,1,.54-2.08l1.95.506a7.722,7.722,0,0,1,5.69,6.282l1.533,8.536a1.075,1.075,0,0,1-1.059,1.265Z" transform="translate(-4893.115 -1342.092)" fill="#fff"/>
    <path id="Path_2760" data-name="Path 2760" d="M3350.673,987.684a4.508,4.508,0,1,0,4.508,4.508A4.513,4.513,0,0,0,3350.673,987.684Zm0,11.166a6.658,6.658,0,1,1,6.658-6.658A6.665,6.665,0,0,1,3350.673,998.85Z" transform="translate(-3338.079 -958.494)" fill="#fff"/>
    <path id="Path_2761" data-name="Path 2761" d="M3172.478,1399.418a1.091,1.091,0,0,1-.154-.011,1.075,1.075,0,0,1-.911-1.217l1.229-8.548a7.725,7.725,0,0,1,5.7-6.307l1.949-.506a1.075,1.075,0,1,1,.54,2.081l-1.95.506a5.574,5.574,0,0,0-4.11,4.544l-1.228,8.537A1.075,1.075,0,0,1,3172.478,1399.418Z" transform="translate(-3171.402 -1342.091)" fill="#fff"/>
    <path id="Path_2762" data-name="Path 2762" d="M3613.617,1387.421a1.071,1.071,0,0,1-.8-.354,5.564,5.564,0,0,0-2.735-1.657l-1.95-.506a1.075,1.075,0,1,1,.54-2.08l1.95.506a7.706,7.706,0,0,1,3.789,2.3,1.075,1.075,0,0,1-.8,1.8Z" transform="translate(-3592.337 -1342.086)" fill="#fff"/>
    <path id="Path_2763" data-name="Path 2763" d="M3678.077,201.445a4.508,4.508,0,1,0,4.508,4.508A4.513,4.513,0,0,0,3678.077,201.445Zm0,11.166a6.658,6.658,0,1,1,6.658-6.658A6.665,6.665,0,0,1,3678.077,212.612Z" transform="translate(-3654.223 -199.296)" fill="#fff"/>
    <path id="Path_2764" data-name="Path 2764" d="M3519.687,608.439a1.106,1.106,0,0,1-.154-.011,1.075,1.075,0,0,1-.911-1.217l.548-3.811a7.726,7.726,0,0,1,5.7-6.307l1.95-.506a1.075,1.075,0,0,1,.54,2.08l-1.95.506a5.573,5.573,0,0,0-4.11,4.544l-.546,3.8A1.075,1.075,0,0,1,3519.687,608.439Z" transform="translate(-3506.669 -582.89)" fill="#fff"/>
    <path id="Path_2765" data-name="Path 2765" d="M3943.048,606.943a1.075,1.075,0,0,1-1.058-.9l-.391-2.311s0-.01,0-.014a5.573,5.573,0,0,0-4.11-4.544l-1.95-.506a1.075,1.075,0,0,1,.54-2.08l1.95.506a7.72,7.72,0,0,1,5.692,6.288l.39,2.3a1.074,1.074,0,0,1-.881,1.239A1.056,1.056,0,0,1,3943.048,606.943Z" transform="translate(-3908.48 -582.894)" fill="#fff"/>
    <path id="Path_2766" data-name="Path 2766" d="M4475.37,201.445a4.508,4.508,0,1,0,4.508,4.508A4.513,4.513,0,0,0,4475.37,201.445Zm0,11.166a6.658,6.658,0,1,1,6.658-6.658A6.665,6.665,0,0,1,4475.37,212.612Z" transform="translate(-4424.095 -199.296)" fill="#fff"/>
    <path id="Path_2767" data-name="Path 2767" d="M4322.671,606.939a1.075,1.075,0,0,1-1.063-1.237l.352-2.311a7.722,7.722,0,0,1,5.694-6.3l1.951-.506a1.075,1.075,0,0,1,.541,2.08l-1.951.506a5.573,5.573,0,0,0-4.11,4.544l-.351,2.308A1.076,1.076,0,0,1,4322.671,606.939Z" transform="translate(-4282.037 -582.89)" fill="#fff"/>
    <path id="Path_2768" data-name="Path 2768" d="M4740.606,608.443a1.074,1.074,0,0,1-1.056-.885l-.685-3.811,0-.025a5.572,5.572,0,0,0-4.108-4.544l-1.95-.506a1.075,1.075,0,1,1,.54-2.08l1.95.506a7.722,7.722,0,0,1,5.69,6.282l.684,3.8a1.075,1.075,0,0,1-.868,1.248A1.1,1.1,0,0,1,4740.606,608.443Z" transform="translate(-4678.324 -582.894)" fill="#fff"/>
    <path id="Path_2769" data-name="Path 2769" d="M4118.78,952.45a1.071,1.071,0,0,1-.76-.315l-2.417-2.417a1.075,1.075,0,0,1,1.52-1.52l1.657,1.657,7.784-7.784a1.075,1.075,0,0,1,1.521,1.52l-8.544,8.544A1.075,1.075,0,0,1,4118.78,952.45Z" transform="translate(-4082.826 -916.221)" fill="#fff"/>
  </g>
</svg>
