<svg xmlns="http://www.w3.org/2000/svg" width="67.15" height="68.354" viewBox="0 0 67.15 68.354">
  <g id="Group_919" data-name="Group 919" transform="translate(0 0.001)">
    <path id="Path_2930" data-name="Path 2930" d="M9866.162,6390.9a3.88,3.88,0,1,0,3.881,3.879A3.884,3.884,0,0,0,9866.162,6390.9Zm0,9.909a6.029,6.029,0,1,1,6.03-6.03A6.038,6.038,0,0,1,9866.162,6400.813Z" transform="translate(-9850.661 -6372.77)" fill="#fff"/>
    <path id="Path_2931" data-name="Path 2931" d="M9735.385,6681.788a3.618,3.618,0,0,1-3.613-3.613v-11.462a1.045,1.045,0,0,1,.014-.167.637.637,0,0,0-.125-.49.629.629,0,0,0-.439-.247l-7.462-.8a7.479,7.479,0,0,1-6.577-8.7l1.7-9.886a15.948,15.948,0,0,1,3.778-7.876,1.075,1.075,0,0,1,1.609,1.426,13.8,13.8,0,0,0-3.27,6.814l-1.7,9.886a5.332,5.332,0,0,0,4.688,6.2l7.462.8a2.791,2.791,0,0,1,2.474,3.115v11.388a1.463,1.463,0,1,0,2.926,0V6662.19a1.966,1.966,0,0,0-1.27-1.84l-9.771-1.541a1.074,1.074,0,0,1,.335-2.122l9.868,1.555a1.134,1.134,0,0,1,.172.043,4.109,4.109,0,0,1,2.814,3.9v15.985A3.617,3.617,0,0,1,9735.385,6681.788Z" transform="translate(-9712.52 -6613.618)" fill="#fff"/>
    <path id="Path_2932" data-name="Path 2932" d="M9601.136,6699.04h-4.516a11.876,11.876,0,0,1-11.862-11.862v-16.6a1.075,1.075,0,0,1,2.149,0v16.6a9.724,9.724,0,0,0,9.713,9.713h4.516a1.075,1.075,0,1,1,0,2.149Z" transform="translate(-9584.758 -6643.865)" fill="#fff"/>
    <path id="Path_2933" data-name="Path 2933" d="M9597.871,7482.411a1.074,1.074,0,0,1-.249-2.119l8.053-1.934v-10.152a1.075,1.075,0,1,1,2.149,0v11a1.074,1.074,0,0,1-.823,1.044l-8.878,2.131A1.09,1.09,0,0,1,9597.871,7482.411Z" transform="translate(-9596.384 -7414.059)" fill="#fff"/>
    <path id="Path_2934" data-name="Path 2934" d="M9864.9,7791.041a1.043,1.043,0,0,1-.2-.019l-10.563-1.946a1.075,1.075,0,0,1,.39-2.115l10.563,1.947a1.075,1.075,0,0,1-.193,2.133Z" transform="translate(-9844.03 -7722.871)" fill="#fff"/>
    <path id="Path_2935" data-name="Path 2935" d="M10099.722,6781.953h-2a1.075,1.075,0,1,1,0-2.15h2a1.5,1.5,0,1,0,0-3h-6.515a1.075,1.075,0,0,1-1.074-1.075v-7.02a1.075,1.075,0,1,1,2.149,0v5.946h5.439a3.651,3.651,0,0,1,0,7.3Z" transform="translate(-10074.684 -6738.615)" fill="#fff"/>
    <path id="Path_2936" data-name="Path 2936" d="M9955.673,6918.3h-2.711a4.668,4.668,0,0,1-4.662-4.661v-3.73a1.075,1.075,0,1,1,2.149,0v3.73a2.515,2.515,0,0,0,2.513,2.512h2.711a1.075,1.075,0,0,1,0,2.149Z" transform="translate(-9935.797 -6874.967)" fill="#fff"/>
    <path id="Path_2937" data-name="Path 2937" d="M10917.287,6390.9a3.88,3.88,0,1,0,3.88,3.879A3.883,3.883,0,0,0,10917.287,6390.9Zm0,9.909a6.029,6.029,0,1,1,6.029-6.03A6.036,6.036,0,0,1,10917.287,6400.813Z" transform="translate(-10865.637 -6372.77)" fill="#fff"/>
    <path id="Path_2938" data-name="Path 2938" d="M10771,6681.788a3.618,3.618,0,0,1-3.613-3.613V6662.19a4.11,4.11,0,0,1,2.814-3.9,1.147,1.147,0,0,1,.173-.043l9.868-1.555a1.074,1.074,0,1,1,.334,2.122l-9.771,1.541a1.967,1.967,0,0,0-1.271,1.84v15.985a1.464,1.464,0,0,0,2.928,0v-11.388a2.791,2.791,0,0,1,2.473-3.115l7.461-.8a5.333,5.333,0,0,0,4.688-6.2l-1.7-9.886a13.772,13.772,0,0,0-3.271-6.814,1.075,1.075,0,1,1,1.609-1.426,15.925,15.925,0,0,1,3.779,7.876l1.7,9.886a7.482,7.482,0,0,1-6.578,8.7l-7.463.8a.632.632,0,0,0-.439.247.641.641,0,0,0-.124.49,1.045,1.045,0,0,1,.014.167v11.462A3.618,3.618,0,0,1,10771,6681.788Z" transform="translate(-10726.71 -6613.618)" fill="#fff"/>
    <path id="Path_2939" data-name="Path 2939" d="M10125.521,7123.738h-29.938a1.075,1.075,0,1,1,0-2.149h29.938a1.075,1.075,0,0,1,0,2.149Z" transform="translate(-10076.977 -7080.4)" fill="#fff"/>
    <path id="Path_2940" data-name="Path 2940" d="M11035.431,6699.04h-4.515a1.075,1.075,0,0,1,0-2.149h4.515a9.724,9.724,0,0,0,9.713-9.713v-16.6a1.075,1.075,0,0,1,2.149,0v16.6A11.875,11.875,0,0,1,11035.431,6699.04Z" transform="translate(-10980.143 -6643.865)" fill="#fff"/>
    <path id="Path_2941" data-name="Path 2941" d="M11214.547,7482.411a1.1,1.1,0,0,1-.253-.03l-8.877-2.131a1.074,1.074,0,0,1-.824-1.044v-11a1.075,1.075,0,1,1,2.149,0v10.152l8.054,1.934a1.074,1.074,0,0,1-.249,2.119Z" transform="translate(-11148.884 -7414.059)" fill="#fff"/>
    <path id="Path_2942" data-name="Path 2942" d="M10900.143,7791.051a1.075,1.075,0,0,1-.193-2.132l10.564-1.947a1.075,1.075,0,0,1,.39,2.115l-10.564,1.946A1,1,0,0,1,10900.143,7791.051Z" transform="translate(-10853.866 -7722.882)" fill="#fff"/>
    <path id="Path_2943" data-name="Path 2943" d="M10708.745,6781.953h-2a3.651,3.651,0,0,1,0-7.3h5.438V6768.7a1.075,1.075,0,1,1,2.149,0v7.02a1.074,1.074,0,0,1-1.075,1.075h-6.513a1.5,1.5,0,1,0,0,3h2a1.075,1.075,0,1,1,0,2.15Z" transform="translate(-10664.63 -6738.615)" fill="#fff"/>
    <path id="Path_2944" data-name="Path 2944" d="M10931.918,6918.3h-2.709a1.075,1.075,0,1,1,0-2.149h2.709a2.513,2.513,0,0,0,2.512-2.512v-3.73a1.075,1.075,0,0,1,2.15,0v3.73A4.666,4.666,0,0,1,10931.918,6918.3Z" transform="translate(-10881.933 -6874.967)" fill="#fff"/>
    <path id="Path_2945" data-name="Path 2945" d="M10219.762,5936.784a1.081,1.081,0,0,1,.59.176l.751.493-.15-.484a1.072,1.072,0,0,1,.343-1.144,5.485,5.485,0,0,0-3.494-9.713h-10.075a5.485,5.485,0,1,0,0,10.97h10.075a5.514,5.514,0,0,0,1.64-.25A1.079,1.079,0,0,1,10219.762,5936.784Zm3.247,4.284a1.073,1.073,0,0,1-.589-.176l-2.844-1.87a7.616,7.616,0,0,1-1.775.209h-10.075a7.634,7.634,0,1,1,0-15.269h10.075a7.643,7.643,0,0,1,7.634,7.634h0a7.608,7.608,0,0,1-2.227,5.388l.828,2.691a1.073,1.073,0,0,1-1.027,1.391Z" transform="translate(-10178.928 -5923.963)" fill="#fff"/>
    <path id="Path_2946" data-name="Path 2946" d="M10580.795,6676.532a1.078,1.078,0,0,1-.819-.378l-3.848-4.525a3.416,3.416,0,0,1,.331-4.739,3.4,3.4,0,0,1,4.8.285l3.1,3.5,2.4-2.472a1.075,1.075,0,0,1,1.542,1.5l-3.211,3.3a1.076,1.076,0,0,1-1.575-.036l-3.873-4.368a1.246,1.246,0,0,0-1.762-.106,1.252,1.252,0,0,0-.12,1.74l3.848,4.525a1.074,1.074,0,0,1-.818,1.771Z" transform="translate(-10541.259 -6640.511)" fill="#fff"/>
  </g>
</svg>
