<svg xmlns="http://www.w3.org/2000/svg" width="33.463" height="33.463" viewBox="0 0 33.463 33.463">
  <path id="twitter" d="M16.732,0A16.732,16.732,0,1,0,33.463,16.732,16.733,16.733,0,0,0,16.732,0Zm7.639,13.046q.011.247.011.5A10.852,10.852,0,0,1,13.455,24.469h0a10.87,10.87,0,0,1-5.887-1.725,7.811,7.811,0,0,0,.916.053,7.706,7.706,0,0,0,4.77-1.644,3.845,3.845,0,0,1-3.588-2.667,3.828,3.828,0,0,0,1.735-.066A3.841,3.841,0,0,1,8.32,14.655c0-.017,0-.033,0-.049a3.814,3.814,0,0,0,1.739.48A3.844,3.844,0,0,1,8.871,9.959a10.9,10.9,0,0,0,7.916,4.013,3.842,3.842,0,0,1,6.544-3.5,7.7,7.7,0,0,0,2.439-.932,3.855,3.855,0,0,1-1.689,2.124,7.659,7.659,0,0,0,2.205-.6,7.8,7.8,0,0,1-1.916,1.989Zm0,0" fill="#1d64e0"/>
</svg>
