<svg xmlns="http://www.w3.org/2000/svg" width="27.321" height="27.284" viewBox="0 0 27.321 27.284">
  <g id="upload" transform="translate(0 -0.358)">
    <g id="Group_865" data-name="Group 865" transform="translate(0 17.022)">
      <g id="Group_864" data-name="Group 864">
        <path id="Path_2334" data-name="Path 2334" d="M25.187,312.642v7.417a1.068,1.068,0,0,1-1.067,1.067H3.2a1.068,1.068,0,0,1-1.067-1.067v-7.417H0v7.417a3.205,3.205,0,0,0,3.2,3.2H24.12a3.205,3.205,0,0,0,3.2-3.2v-7.417Z" transform="translate(0 -312.642)" fill="#1d64e0"/>
      </g>
    </g>
    <g id="Group_867" data-name="Group 867" transform="translate(7.029 0.358)">
      <g id="Group_866" data-name="Group 866" transform="translate(0 0)">
        <path id="Path_2335" data-name="Path 2335" d="M138.348.358,131.716,6.99,133.225,8.5l4.056-4.056V21.078h2.135V4.444L143.471,8.5,144.98,6.99Z" transform="translate(-131.716 -0.358)" fill="#1d64e0"/>
      </g>
    </g>
  </g>
</svg>
