<svg xmlns="http://www.w3.org/2000/svg" width="11.335" height="11.336" viewBox="0 0 11.335 11.336">
  <g id="Group_38" data-name="Group 38" transform="translate(0 0.001)">
    <path id="Path_225" data-name="Path 225" d="M25.676,49.445h.449v2.432h.425V49.445h.458v-.4H25.676Z" transform="translate(-22.699 -43.359)" fill="#a9a9a9"/>
    <path id="Path_226" data-name="Path 226" d="M50.75,49.742a.517.517,0,0,0-.395.229v-.924h-.382v2.831h.382v-.2a.521.521,0,0,0,.395.233.3.3,0,0,0,.305-.237,1.679,1.679,0,0,0,.039-.425V50.4a1.62,1.62,0,0,0-.039-.424A.3.3,0,0,0,50.75,49.742Zm-.038,1.532c0,.191-.056.285-.166.285a.273.273,0,0,1-.191-.094V50.179a.274.274,0,0,1,.191-.093c.11,0,.166.1.166.288Z" transform="translate(-44.178 -43.359)" fill="#a9a9a9"/>
    <path id="Path_227" data-name="Path 227" d="M38.36,56.88c-.085.12-.165.179-.242.179-.051,0-.08-.03-.089-.089a1.181,1.181,0,0,1,0-.148V55.268h-.382v1.667a1.075,1.075,0,0,0,.034.314.235.235,0,0,0,.246.157.612.612,0,0,0,.437-.259v.23h.382V55.268H38.36Z" transform="translate(-33.278 -48.859)" fill="#a9a9a9"/>
    <path id="Path_228" data-name="Path 228" d="M45.247,27.124c.124,0,.184-.1.184-.3v-.9c0-.2-.06-.3-.184-.3s-.184.1-.184.3v.9C45.063,27.025,45.123,27.124,45.247,27.124Z" transform="translate(-39.838 -22.663)" fill="#a9a9a9"/>
    <path id="Path_229" data-name="Path 229" d="M5.667,0a5.668,5.668,0,1,0,5.667,5.668A5.668,5.668,0,0,0,5.667,0ZM6.3,2.651h.385V4.22a.909.909,0,0,0,0,.15c.008.06.039.09.091.09.077,0,.158-.06.244-.181V2.651h.386V4.782H7.022V4.55a.62.62,0,0,1-.441.262.237.237,0,0,1-.249-.158A1.077,1.077,0,0,1,6.3,4.336V2.651Zm-1.459.695a.828.828,0,0,1,.121-.5.573.573,0,0,1,.9,0,.837.837,0,0,1,.12.5v.746a.834.834,0,0,1-.12.5.573.573,0,0,1-.9,0,.826.826,0,0,1-.121-.5ZM3.807,1.922l.3,1.123L4.4,1.922h.433l-.515,1.7V4.782H3.892V3.624a7.044,7.044,0,0,0-.262-.9c-.09-.265-.184-.532-.274-.8ZM8.718,8.7a.8.8,0,0,1-.683.621,21.239,21.239,0,0,1-2.368.088A21.238,21.238,0,0,1,3.3,9.326.8.8,0,0,1,2.616,8.7a6.765,6.765,0,0,1-.11-1.495,6.773,6.773,0,0,1,.112-1.495A.8.8,0,0,1,3.3,5.093a21.241,21.241,0,0,1,2.368-.088,21.239,21.239,0,0,1,2.368.088.8.8,0,0,1,.684.621,6.786,6.786,0,0,1,.109,1.495A6.765,6.765,0,0,1,8.718,8.7Z" fill="#a9a9a9"/>
    <path id="Path_230" data-name="Path 230" d="M62.781,55.046a.543.543,0,0,0-.458.216.822.822,0,0,0-.118.5V56.5a.814.814,0,0,0,.123.5.547.547,0,0,0,.462.216.528.528,0,0,0,.462-.229.544.544,0,0,0,.089-.229c0-.038.008-.123.008-.246V56.45h-.39a2.5,2.5,0,0,1-.008.259.164.164,0,0,1-.171.153c-.131,0-.2-.1-.2-.292V56.2h.764v-.437a.829.829,0,0,0-.118-.5A.531.531,0,0,0,62.781,55.046Zm.187.832h-.382v-.2q0-.293.192-.293c.126,0,.19.1.19.293Z" transform="translate(-54.992 -48.663)" fill="#a9a9a9"/>
  </g>
</svg>
