<svg xmlns="http://www.w3.org/2000/svg" width="20.382" height="20.742" viewBox="0 0 20.382 20.742">
  <g id="youtube-logotype" transform="translate(0 0)">
    <g id="Group_38" data-name="Group 38">
      <path id="Path_225" data-name="Path 225" d="M25.676,49.763h.808v4.373h.764V49.763h.823v-.716h-2.4Z" transform="translate(-20.322 -38.579)" fill="#fff"/>
      <path id="Path_226" data-name="Path 226" d="M51.37,50.3a.93.93,0,0,0-.71.411V49.046h-.687v5.09h.687v-.367a.937.937,0,0,0,.71.42.544.544,0,0,0,.549-.426,3.019,3.019,0,0,0,.07-.764v-1.51a2.913,2.913,0,0,0-.07-.762A.544.544,0,0,0,51.37,50.3ZM51.3,53.052c0,.343-.1.512-.3.512a.49.49,0,0,1-.343-.169V51.083A.493.493,0,0,1,51,50.915c.2,0,.3.176.3.518Z" transform="translate(-39.553 -38.578)" fill="#fff"/>
      <path id="Path_227" data-name="Path 227" d="M38.932,58.166c-.152.215-.3.322-.435.322-.092,0-.144-.054-.161-.161a2.124,2.124,0,0,1-.006-.267V55.268h-.687v3a1.934,1.934,0,0,0,.061.564.422.422,0,0,0,.443.282,1.1,1.1,0,0,0,.785-.466v.414h.688V55.268h-.688Z" transform="translate(-29.794 -43.493)" fill="#fff"/>
      <path id="Path_228" data-name="Path 228" d="M45.395,28.311c.224,0,.331-.177.331-.532V26.167c0-.355-.107-.531-.331-.531s-.332.177-.332.531v1.612C45.063,28.134,45.171,28.311,45.395,28.311Z" transform="translate(-35.667 -20.182)" fill="#fff"/>
      <path id="Path_229" data-name="Path 229" d="M10.191,0A10.282,10.282,0,0,0,0,10.371,10.282,10.282,0,0,0,10.191,20.743,10.282,10.282,0,0,0,20.382,10.371,10.282,10.282,0,0,0,10.191,0Zm1.133,4.851h.692V7.722A1.693,1.693,0,0,0,12.026,8c.015.109.07.166.163.166.139,0,.285-.109.439-.331V4.851h.694v3.9h-.694V8.326a1.111,1.111,0,0,1-.793.479.426.426,0,0,1-.447-.29,2,2,0,0,1-.062-.58V4.851ZM8.7,6.123A1.536,1.536,0,0,1,8.919,5.2a1.019,1.019,0,0,1,1.619,0,1.552,1.552,0,0,1,.215.919V7.488a1.547,1.547,0,0,1-.215.917,1.02,1.02,0,0,1-1.619,0A1.531,1.531,0,0,1,8.7,7.488ZM6.845,3.517l.547,2.055.525-2.055H8.7L7.769,6.631v2.12H7V6.631a13.066,13.066,0,0,0-.471-1.656C6.366,4.49,6.2,4,6.035,3.517Zm8.833,12.411a1.446,1.446,0,0,1-1.229,1.137,37.534,37.534,0,0,1-4.258.16,37.533,37.533,0,0,1-4.258-.16A1.445,1.445,0,0,1,4.7,15.928a12.593,12.593,0,0,1-.2-2.735,12.608,12.608,0,0,1,.2-2.735A1.445,1.445,0,0,1,5.935,9.32a37.538,37.538,0,0,1,4.258-.16,37.534,37.534,0,0,1,4.258.16,1.447,1.447,0,0,1,1.229,1.137,12.633,12.633,0,0,1,.2,2.735A12.593,12.593,0,0,1,15.678,15.928Z" fill="#fff"/>
      <path id="Path_230" data-name="Path 230" d="M63.24,55.046a.976.976,0,0,0-.823.389,1.479,1.479,0,0,0-.212.894v1.329a1.464,1.464,0,0,0,.221.892.983.983,0,0,0,.832.388.95.95,0,0,0,.831-.411.979.979,0,0,0,.161-.412c.006-.069.015-.221.015-.443v-.1h-.7a4.5,4.5,0,0,1-.015.465.3.3,0,0,1-.307.275c-.236,0-.352-.175-.352-.526v-.673h1.375v-.786a1.49,1.49,0,0,0-.213-.894A.954.954,0,0,0,63.24,55.046Zm.336,1.5h-.687v-.351q0-.526.345-.526c.227,0,.342.176.342.526Z" transform="translate(-49.234 -43.317)" fill="#fff"/>
    </g>
  </g>
</svg>
